<svg xmlns="http://www.w3.org/2000/svg" viewBox="146 198 1515 316" height="32" style="height:32px;width:auto;display:block">
  <path fill="#ebe3d4" d="M456.83,215.02l156.11,291.01h-104.2l-32.22-63.99h-193.33l-32.22,63.99h-104.21l156.12-291.01c5.33-9.93,15.68-16.12,26.95-16.12h100.07c11.27,0,21.62,6.2,26.95,16.12ZM445.21,379.66l-65.36-130.72-65.59,130.72h130.94Z"/>
  <path fill="#ebe3d4" d="M728.5,506.04h-93.69V198.9h93.69v307.14Z"/>
  <path fill="#ebe3d4" d="M1189.21,360.92c0,49.82-17.86,87.68-53.59,113.58-35.73,25.9-89.92,38.85-162.6,38.85s-127.06-12.95-162.71-38.85c-35.65-25.9-53.48-63.76-53.48-113.58v-16.91c0-49.97,17.83-87.9,53.48-113.81,35.65-25.9,89.88-38.85,162.71-38.85s126.87,12.95,162.6,38.85c35.72,25.9,53.59,63.84,53.59,113.81v16.91ZM850.08,356.58c0,17.83,3.24,32.33,9.71,43.53,6.47,11.2,14.74,19.96,24.79,26.28,10.05,6.33,20.72,10.86,31.99,13.6,11.27,2.74,21.97,4.38,32.11,4.91,10.13.54,18.24.8,24.33.8s14.17-.27,24.23-.8c10.05-.53,20.75-2.17,32.11-4.91,11.35-2.74,22.05-7.27,32.11-13.6,10.06-6.32,18.32-15.08,24.79-26.28,6.47-11.2,9.71-25.71,9.71-43.53v-8.46c0-17.82-3.24-32.33-9.71-43.53-6.47-11.19-14.74-19.92-24.79-26.16-10.05-6.25-20.76-10.74-32.11-13.48-11.35-2.74-22.05-4.38-32.11-4.91-10.05-.53-18.13-.8-24.23-.8s-14.21.27-24.33.8c-10.14.54-20.84,2.17-32.11,4.91-11.27,2.74-21.94,7.24-31.99,13.48-10.06,6.25-18.32,14.97-24.79,26.16-6.48,11.2-9.71,25.71-9.71,43.53v8.46Z"/>
  <path fill="#ebe3d4" d="M1660.65,506.04h-107.59c-9.62,0-18.79-4.1-25.2-11.28l-208.62-233.47v244.75h-93.69V198.9h140.81c9.84,0,19.19,4.29,25.61,11.75l174.76,203.06v-214.81h93.92v307.14Z"/>
</svg>
